<?xml version="1.0" encoding="utf-8"?>
<!-- Generator: Adobe Illustrator 25.0.0, SVG Export Plug-In . SVG Version: 6.00 Build 0)  -->
<svg version="1.1" id="Layer_1" xmlns="http://www.w3.org/2000/svg" xmlns:xlink="http://www.w3.org/1999/xlink" x="0px" y="0px"
	 viewBox="0 0 1920 1080" style="enable-background:new 0 0 1920 1080;" xml:space="preserve">
<style type="text/css">
	.st0{fill:#FFFFFF;}
</style>
<g>
	<g>
		<path d="M1470.16,1050.16c-342.46,0-685.94,0-1029.76,0c0-342.91,0-685.83,0-1029.76c342.46,0,685.27,0,1029.76,0
			C1470.16,362.97,1470.16,706.57,1470.16,1050.16z M929.44,1026.79c-45.66-84.85-22.48-141.53,67.59-165.17
			c25.55-6.71,55.82-14.24,79.13-6.67c45.71,14.85,96.82,31.57,128.42,64.2c18.41,19.02,3.35,70.38,3.35,106.57
			c63.44,0,139.5,0,210.2,0c0-166.41,0-328.6,0-483.8c-44.99,26.16-83.22,62.09-126.71,70.34c-59.84,11.36-80.98,39.23-92.38,94.76
			c-8.55,41.66-10.41,73.01,29.08,96c14.02,8.16,28.98,14.69,43.51,21.97c-5.3,6.45-10.6,12.91-15.89,19.36
			c-99.61-22.77-199.22-45.55-298.83-68.32c69.03-37.8,49.58-95.56,44.53-149.59c-3.13-33.44-4.11-67.08-6.25-103.9
			c29.04-4.04,53.65-7.03,78.12-10.93c132.69-21.16,190.38-101.1,169.61-234.66c-11.91-76.61-55.72-110.18-128.16-81.69
			c-45.09,17.73-87.59,54-118.78,92.13c-42.1,51.48-72.2,112.75-114.9,181.88c-26.28-139.34-49.85-264.28-73.42-389.23
			c-5.14,0.32-10.28,0.64-15.42,0.96c-1.97,16.63-5.01,33.21-5.73,49.9c-6.49,150.12-9.66,300.45-19.99,450.3
			c-5.35,77.6-11.47,150.12,70.37,193.91c1.77,0.95,1.14,6.4,2.21,13.75c-95.41,11.56-190.5,23.07-284.1,34.41
			c16.59-49.42,44.93-92.95,42.92-135.03c-8.28-173.21-26.88-345.9-39.11-518.97c-3.11-44.05-23.41-57.94-70.21-56.85
			c0,305.91,0,608.95,0,913.62c30.58,0,60.06,0,97.17,0c-35.54-36.41-58.87-71.12-31.6-116.82
			c38.69-64.85,160.95-89.37,243.29-44.48c23.54,12.83,52.49,36.26,56.76,58.99c6.08,32.38-8.32,68.6-13.95,103.05
			C865.22,1026.79,896.7,1026.79,929.44,1026.79z M996.65,45.73c-57.73,3.99-115.46,7.99-186.16,12.88
			C890.35,133.97,890.35,133.97,996.65,45.73z M760.28,59.29c-0.27-3.22-0.54-6.44-0.81-9.66c-79.85,0-159.7-0.58-239.52,0.81
			c-8.94,0.15-17.68,11.43-26.51,17.55c8.68,5.97,17.9,17.76,25.97,17.02C599.81,77.62,680.02,68.16,760.28,59.29z M1409.51,54.04
			c-38.33,0-71.2,0-109.79,0c39.55,29.4,72.54,53.91,109.79,81.6C1409.51,105.51,1409.51,81.41,1409.51,54.04z"/>
		<path class="st0" d="M929.44,1026.79c-32.74,0-64.22,0-89.18,0c5.63-34.45,20.03-70.67,13.95-103.05
			c-4.27-22.73-33.22-46.15-56.76-58.99c-82.35-44.89-204.6-20.37-243.29,44.48c-27.26,45.7-3.94,80.4,31.6,116.82
			c-37.11,0-66.58,0-97.17,0c0-304.68,0-607.71,0-913.62c46.79-1.09,67.1,12.8,70.21,56.85c12.23,173.06,30.83,345.76,39.11,518.97
			c2.01,42.08-26.33,85.6-42.92,135.03c93.6-11.34,188.69-22.86,284.1-34.41c-1.07-7.35-0.44-12.8-2.21-13.75
			c-81.84-43.79-75.72-116.3-70.37-193.91c10.33-149.85,13.5-300.18,19.99-450.3c0.72-16.68,3.77-33.27,5.73-49.9
			c5.14-0.32,10.28-0.64,15.42-0.96c23.57,124.94,47.14,249.88,73.42,389.23c42.7-69.13,72.8-130.4,114.9-181.88
			c31.18-38.13,73.69-74.4,118.78-92.13c72.44-28.49,116.25,5.09,128.16,81.69c20.77,133.56-36.92,213.5-169.61,234.66
			c-24.47,3.9-49.08,6.89-78.12,10.93c2.14,36.82,3.12,70.46,6.25,103.9c5.06,54.03,24.51,111.79-44.53,149.59
			c99.61,22.77,199.22,45.55,298.83,68.32c5.3-6.45,10.6-12.91,15.89-19.36c-14.53-7.28-29.49-13.81-43.51-21.97
			c-39.49-22.98-37.63-54.34-29.08-96c11.4-55.53,32.54-83.4,92.38-94.76c43.49-8.25,81.71-44.18,126.71-70.34
			c0,155.2,0,317.39,0,483.8c-70.7,0-146.76,0-210.2,0c0-36.18,15.06-87.55-3.35-106.57c-31.6-32.64-82.72-49.36-128.42-64.2
			c-23.31-7.57-53.58-0.03-79.13,6.67C906.96,885.26,883.78,941.95,929.44,1026.79z"/>
		<path class="st0" d="M996.65,45.73c-106.3,88.24-106.3,88.24-186.16,12.88C881.19,53.72,938.92,49.72,996.65,45.73z"/>
		<path class="st0" d="M760.28,59.29c-80.27,8.87-160.48,18.33-240.88,25.72c-8.06,0.74-17.28-11.05-25.97-17.02
			c8.83-6.12,17.58-17.4,26.51-17.55c79.82-1.38,159.68-0.81,239.52-0.81C759.75,52.85,760.01,56.07,760.28,59.29z"/>
		<path class="st0" d="M1409.51,54.04c0,27.37,0,51.47,0,81.6c-37.26-27.69-70.24-52.21-109.79-81.6
			C1338.31,54.04,1371.18,54.04,1409.51,54.04z"/>
	</g>
</g>
</svg>
